<?xml version="1.0" standalone="no"?>
<!DOCTYPE svg PUBLIC "-//W3C//DTD SVG 20010904//EN"
 "http://www.w3.org/TR/2001/REC-SVG-20010904/DTD/svg10.dtd">
<svg version="1.0" xmlns="http://www.w3.org/2000/svg"
 width="1024.000000pt" height="1024.000000pt" viewBox="0 0 1024.000000 1024.000000"
 preserveAspectRatio="xMidYMid meet">

<g transform="translate(0.000000,1024.000000) scale(0.100000,-0.100000)"
fill="#000000" stroke="none">
<path d="M5095 9688 c-37 -73 -106 -168 -197 -269 -148 -166 -133 -155 -228
-168 -382 -54 -726 -156 -1057 -316 l-132 -63 -37 56 c-58 88 -188 211 -275
260 -168 94 -347 131 -491 101 -78 -16 -206 -80 -263 -130 -27 -25 -69 -59
-92 -77 -58 -45 -134 -143 -177 -231 -52 -102 -76 -204 -76 -317 0 -162 35
-275 124 -399 39 -54 175 -195 188 -195 17 0 6 -23 -51 -108 -322 -478 -492
-956 -540 -1517 -6 -68 -11 -416 -11 -807 0 -611 2 -688 16 -702 20 -20 38
-20 55 1 11 13 15 143 20 712 6 692 6 697 32 851 36 214 88 410 108 410 6 0
19 -4 29 -10 17 -9 17 -13 -6 -100 -13 -50 -36 -160 -51 -243 l-28 -152 -2
-2836 -3 -2837 -40 -4 -40 -4 0 2028 0 2028 -21 21 c-18 18 -23 19 -42 6 l-22
-14 -3 -2030 -2 -2030 -38 -7 c-20 -3 -73 -6 -118 -6 -66 0 -84 -3 -97 -18
-20 -22 -22 -55 -3 -71 10 -8 948 -10 3566 -9 3552 3 3553 3 3566 23 12 18 10
24 -10 50 -23 29 -27 30 -95 28 l-71 -1 0 1746 c0 2879 -5 3954 -18 4067 -52
427 -168 793 -364 1150 -381 692 -962 1197 -1713 1488 -272 106 -633 196 -838
209 -33 2 -47 11 -100 68 -152 160 -256 298 -293 385 -8 19 -18 35 -24 35 -5
0 -21 -23 -35 -52z m-17 -342 c-23 -43 -200 -237 -225 -247 -13 -5 -53 -9 -88
-9 l-64 0 56 53 c62 57 296 316 316 348 10 17 12 10 15 -51 2 -43 -2 -79 -10
-94z m291 -71 c56 -60 121 -127 143 -147 l41 -38 -70 0 c-57 0 -76 4 -98 22
-33 26 -95 92 -164 174 l-51 62 0 76 0 77 48 -58 c27 -32 95 -107 151 -168z
m-2494 -50 c159 -41 300 -120 391 -220 65 -70 87 -110 37 -63 -79 72 -242 160
-408 221 -101 37 -119 41 -212 41 -56 1 -100 3 -98 4 2 2 21 10 42 17 51 19
175 18 248 0z m-140 -85 l30 -8 -31 -1 c-109 -4 -295 -101 -375 -196 -19 -23
-23 -31 -10 -20 15 13 6 -6 -25 -52 -26 -40 -53 -73 -59 -73 -16 0 -53 -82
-39 -87 16 -5 -17 -113 -35 -113 -22 0 -8 -161 20 -230 12 -30 23 -70 24 -88
2 -18 15 -56 30 -85 l26 -52 -25 30 c-42 50 -95 158 -112 231 -21 88 -14 233
15 324 47 148 177 315 292 372 98 50 199 67 274 48z m2431 -33 c32 -29 35 -36
25 -55 -17 -32 -56 -55 -80 -47 -11 3 -30 20 -42 36 l-21 31 33 34 c18 19 37
34 41 34 5 0 25 -15 44 -33z m-2177 -128 c121 -42 305 -184 380 -293 30 -43
75 -136 66 -136 -2 0 -25 32 -52 72 -58 87 -112 146 -121 132 -4 -5 -59 -52
-122 -104 -63 -52 -118 -98 -121 -103 -4 -5 -37 41 -74 102 -37 60 -73 115
-80 121 -9 8 -26 -8 -69 -67 -31 -43 -56 -85 -56 -94 0 -8 12 -39 26 -69 14
-30 28 -69 31 -88 7 -39 3 -45 -141 -216 l-100 -119 -63 67 c-159 171 -193
387 -91 577 56 107 187 209 305 239 62 15 210 5 282 -21z m1967 -50 c122 -120
136 -142 132 -220 l-3 -64 -180 183 -180 182 74 0 73 0 84 -81z m488 9 c-80
-76 -240 -250 -261 -284 -10 -16 -12 -5 -12 63 l-1 81 101 106 101 106 74 0
74 0 -76 -72z m-771 5 c22 -15 35 -29 30 -30 -5 -2 -80 -16 -166 -32 -146 -27
-160 -32 -186 -60 -32 -34 -69 -40 -111 -16 -14 7 -29 10 -35 6 -5 -5 -48 -21
-95 -36 -125 -41 -277 -107 -418 -180 -68 -36 -126 -65 -128 -65 -2 0 -4 16
-4 35 0 32 5 37 68 73 73 43 251 126 347 162 100 37 199 69 216 70 9 0 21 11
28 24 21 39 56 52 94 37 40 -17 37 -17 182 13 66 13 124 25 129 25 6 1 28 -11
49 -26z m1064 8 c54 -11 120 -27 148 -35 43 -13 51 -14 65 -1 17 16 77 20 96
7 5 -4 17 -18 26 -31 12 -16 59 -39 159 -77 239 -90 484 -216 698 -357 238
-157 374 -270 585 -486 57 -58 59 -61 46 -86 -19 -35 -34 -32 -77 21 -61 73
-278 269 -403 363 -247 186 -536 348 -833 466 -151 60 -171 66 -199 56 -49
-17 -68 -13 -103 22 -31 31 -45 36 -172 60 -76 15 -158 30 -182 34 l-45 6 34
29 c41 33 34 33 157 9z m-3476 -194 c-10 -9 -11 -8 -5 6 3 10 9 15 12 12 3 -3
0 -11 -7 -18z m-20 -40 c-10 -9 -11 -8 -5 6 3 10 9 15 12 12 3 -3 0 -11 -7
-18z m1089 -104 c31 -70 35 -121 16 -205 -40 -179 -165 -337 -318 -401 l-38
-16 0 27 c0 22 11 34 60 65 179 116 266 281 258 490 -1 48 -2 87 -1 87 1 0 12
-21 23 -47z m-446 -37 c51 -105 79 -185 59 -173 -5 3 -8 -14 -8 -38 0 -24 3
-41 8 -38 13 8 -1 -33 -39 -112 -18 -38 -37 -89 -43 -113 -5 -24 -11 -46 -14
-48 -6 -6 -47 114 -47 138 0 10 9 37 21 60 57 112 63 194 19 287 -28 59 -29
65 -15 87 9 13 17 24 19 24 1 0 19 -33 40 -74z m2125 17 c24 -32 61 -95 83
-141 37 -77 58 -96 58 -52 0 31 35 101 89 178 l52 72 57 0 c305 0 777 -139
1162 -342 448 -235 865 -622 1130 -1047 153 -246 287 -577 351 -871 51 -234
49 -126 49 -3057 0 -2949 3 -2773 -49 -2707 -19 24 -21 40 -21 176 0 167 3
156 -85 262 l-40 48 -5 576 c-5 533 -6 576 -22 586 -13 8 -23 8 -35 0 -17 -10
-19 -63 -29 -735 -6 -398 -11 -726 -12 -727 -1 -2 -17 -18 -34 -34 -30 -28
-33 -37 -38 -106 -5 -79 -13 -91 -45 -68 -19 14 -20 31 -23 514 -2 426 -5 502
-17 512 -12 10 -18 10 -30 0 -13 -11 -15 -82 -15 -526 0 -283 -2 -514 -5 -514
-2 0 -15 5 -29 11 -30 14 -36 34 -36 121 l0 68 -73 82 c-40 46 -79 92 -87 102
-11 14 -16 56 -20 155 -5 134 -5 136 -29 139 -13 2 -28 -1 -35 -8 -7 -7 -13
-84 -16 -223 -4 -186 -7 -212 -21 -215 -19 -3 -269 246 -282 280 -4 12 -5 206
-2 432 3 227 1 417 -4 424 -4 8 -17 12 -27 10 -18 -3 -19 -22 -24 -416 l-5
-412 -22 15 c-12 8 -37 41 -56 73 -31 49 -325 701 -378 835 l-19 47 427 0 426
0 56 47 c150 129 331 306 342 337 10 29 17 33 72 43 70 14 121 55 138 113 6
20 9 102 7 196 -3 152 -4 163 -28 197 -13 20 -42 46 -63 58 -21 11 -41 28 -44
35 -3 8 -18 21 -34 30 -28 14 -29 17 -29 89 0 65 2 75 18 75 41 0 96 24 132
56 47 43 60 93 60 229 0 52 4 97 10 100 15 9 12 41 -5 55 -12 10 -15 44 -15
190 l0 177 -30 41 c-16 23 -43 48 -60 57 -28 15 -30 19 -30 73 0 64 -17 98
-56 112 -23 9 -24 13 -24 105 0 63 5 105 14 123 8 15 17 43 21 62 13 73 -67
170 -140 170 -30 0 -33 3 -39 39 -3 22 -12 41 -18 43 -9 3 -3 25 20 75 38 83
40 107 8 128 l-23 15 42 85 c64 126 80 203 80 370 -1 130 -3 147 -33 236 -82
246 -281 434 -531 501 -116 31 -278 28 -396 -7 -288 -85 -490 -302 -555 -596
l-12 -56 -22 22 c-11 11 -71 52 -133 90 -69 43 -116 79 -123 94 -7 14 -16 55
-21 90 -5 36 -12 67 -14 70 -3 3 -47 19 -98 35 l-92 31 -37 75 c-20 41 -37 79
-37 84 -1 5 59 6 142 2 133 -6 501 7 539 20 50 15 5 62 -172 179 -153 102
-342 207 -605 340 l-200 101 -3 215 -2 214 115 142 115 142 232 -141 c128 -78
258 -156 288 -174 30 -18 56 -31 58 -29 3 2 -39 73 -94 157 -54 84 -172 272
-262 418 -90 146 -167 269 -171 273 -5 5 -93 -3 -197 -17 -104 -14 -236 -31
-294 -37 l-105 -13 -144 -148 c-138 -142 -145 -148 -184 -148 -37 0 -47 -7
-161 -118 -66 -65 -168 -158 -225 -207 -57 -50 -123 -107 -147 -128 -48 -42
-27 -39 -429 -72 -406 -33 -575 -56 -601 -83 -13 -13 -12 -17 8 -39 77 -83
401 -247 657 -333 133 -45 341 -100 377 -100 13 0 24 -3 24 -7 0 -5 -36 -66
-80 -138 -44 -71 -80 -137 -80 -145 0 -9 23 -40 50 -70 28 -30 50 -58 50 -64
0 -5 -20 -71 -45 -146 -74 -228 -77 -273 -29 -555 19 -119 33 -815 15 -815
-25 0 -457 183 -594 251 -119 59 -153 98 -204 226 -21 55 -43 85 -110 155 -45
48 -83 91 -83 97 0 5 7 22 15 37 12 23 15 69 15 207 0 97 -4 177 -9 177 -21 0
-9 847 15 1048 4 34 2 58 -5 65 -7 7 -11 67 -11 169 0 140 3 166 25 235 29 92
31 125 9 159 -24 35 -23 97 1 125 21 23 308 265 454 383 298 240 720 424 1148
501 162 29 183 31 284 33 l76 2 42 -57z m-1791 -225 c-18 -54 -52 -100 -114
-158 l-59 -55 -3 35 c-4 33 2 41 87 123 51 48 93 87 96 87 2 0 -1 -15 -7 -32z
m-389 -425 c60 -130 61 -133 61 -220 l0 -88 -24 65 c-12 36 -42 103 -66 150
-38 74 -44 95 -48 165 -3 56 -1 77 6 70 6 -5 38 -69 71 -142z m2617 114 c6
-12 25 -48 43 -79 18 -32 31 -58 29 -58 -3 0 -22 25 -44 55 -21 30 -44 55 -49
55 -6 0 -29 -24 -52 -53 l-42 -54 -95 -7 c-118 -8 -156 -15 -156 -30 0 -6 14
-31 30 -56 l30 -45 -68 -7 c-37 -5 -72 -9 -79 -10 -8 -2 -2 -23 18 -62 16 -32
29 -59 27 -61 -2 -1 -95 -12 -208 -25 -113 -12 -207 -24 -209 -25 -1 -2 24
-48 57 -102 67 -111 92 -158 92 -172 0 -8 -281 82 -444 142 l-40 15 87 26 c47
14 89 31 93 37 10 17 -18 30 -51 23 -28 -6 -26 -2 35 62 99 103 92 100 232
122 120 20 188 42 188 61 0 4 -29 12 -65 17 l-65 9 94 96 93 95 174 23 c215
28 311 38 324 34 6 -2 15 -13 21 -26z m-2805 -237 c22 -12 26 -59 7 -78 -30
-30 -95 7 -81 47 15 41 37 50 74 31z m175 -206 c-5 -14 24 -24 70 -24 32 0 54
-15 54 -37 0 -16 -215 -19 -225 -3 -9 15 12 38 38 42 20 3 22 8 20 83 l-3 80
26 -64 c14 -35 23 -70 20 -77z m-324 49 c35 -32 13 -93 -34 -93 -49 0 -74 56
-41 92 20 22 51 23 75 1z m5330 0 c34 -31 11 -93 -35 -93 -27 0 -57 28 -57 53
0 48 56 73 92 40z m-4998 -241 c3 -20 6 -59 6 -87 0 -27 5 -57 10 -65 8 -13
10 -12 10 3 0 9 5 17 10 17 6 0 10 -40 10 -99 0 -54 3 -112 6 -128 5 -25 2
-30 -30 -46 l-36 -17 -2 38 c0 20 0 49 1 65 1 15 -2 27 -7 27 -10 0 -23 288
-15 320 8 29 30 12 37 -28z m1469 -23 c86 -25 407 -142 433 -158 18 -10 18
-10 -2 -11 -11 0 -83 11 -160 25 -137 24 -186 30 -154 18 8 -4 21 -14 30 -24
8 -10 47 -34 85 -54 39 -19 62 -35 53 -35 -31 0 -212 47 -348 91 -116 38 -131
45 -105 50 17 4 45 7 63 8 59 2 35 41 -26 41 l-26 0 34 35 c19 19 38 35 43 35
6 0 42 -9 80 -21z m-1593 -458 c-26 -18 -26 -69 0 -179 18 -77 20 -118 20
-527 l0 -444 -30 -23 -30 -22 0 -161 0 -162 -45 -32 c-72 -52 -74 -56 -74
-236 0 -284 9 -315 89 -315 32 0 40 -4 40 -19 0 -10 9 -30 20 -44 17 -22 20
-40 20 -139 0 -76 -4 -118 -12 -126 -9 -9 -12 -130 -9 -510 2 -435 1 -499 -13
-517 -13 -17 -15 -58 -16 -240 0 -150 -4 -225 -11 -232 -8 -8 -9 -68 -4 -210
10 -298 15 -1983 6 -1983 -5 0 -25 18 -45 40 l-36 40 0 695 0 695 -24 0 c-13
0 -26 -7 -29 -15 -4 -8 -6 -285 -6 -616 0 -331 -2 -604 -4 -606 -7 -7 -116
132 -127 162 -8 20 -9 68 -5 145 5 82 3 124 -6 145 -9 22 -13 198 -15 689 -2
362 -5 660 -8 663 -2 3 -14 2 -25 -2 -21 -6 -21 -10 -21 -459 0 -249 -3 -704
-7 -1011 l-6 -557 -25 -29 c-13 -16 -28 -29 -33 -29 -6 0 -8 1047 -7 2693 l3
2692 23 118 c54 278 128 507 242 745 69 142 150 286 199 352 l26 35 3 -225 c3
-217 2 -226 -18 -239z m1463 258 c67 -17 124 -33 127 -36 3 -3 -8 -3 -23 1
-35 8 -227 -4 -227 -15 0 -4 30 -10 68 -14 116 -10 338 -55 450 -89 179 -56
606 -215 807 -300 66 -28 62 -35 -6 -11 -96 34 -808 218 -1174 304 -142 33
-609 130 -695 144 -20 3 -17 5 10 6 19 2 118 11 220 21 268 26 302 25 443 -11z
m-2015 -159 c26 -24 28 -47 6 -78 -18 -26 -60 -29 -86 -5 -25 23 -23 68 4 87
30 21 50 20 76 -4z m6042 0 c24 -24 25 -48 4 -78 -31 -44 -104 -16 -104 40 0
24 35 58 60 58 11 0 29 -9 40 -20z m-5290 -88 c0 -26 -140 -117 -152 -100 -15
24 -8 34 52 75 70 47 100 54 100 25z m-31 -230 c0 -37 -4 -74 -9 -82 -8 -13
-10 -13 -10 -1 0 8 -3 12 -6 8 -3 -3 -8 -115 -11 -249 -3 -166 -8 -247 -16
-257 -19 -23 -23 27 -25 289 l-2 235 29 63 c17 34 35 62 40 62 5 0 10 -30 10
-68z m5395 29 c41 -104 95 -367 115 -570 8 -70 11 -982 11 -2842 l0 -2739 -40
0 -40 0 0 2748 c0 1813 -4 2786 -10 2862 -13 135 -31 248 -71 422 -16 69 -29
131 -29 136 0 9 14 16 41 21 4 0 14 -17 23 -38z m-3690 -341 c1 -229 -2 -288
-17 -355 -20 -93 -56 -176 -87 -202 -12 -10 -28 -31 -36 -46 l-15 -28 25 17
c36 23 32 4 -9 -50 -65 -86 -141 -211 -180 -298 -22 -47 -43 -84 -46 -82 -4 2
-5 -4 -2 -14 2 -10 -13 -58 -35 -108 -39 -90 -98 -206 -87 -169 4 11 24 90 46
175 68 268 97 339 206 507 67 104 125 224 148 308 9 35 19 115 21 190 4 109 9
136 27 170 20 36 22 55 22 177 0 95 3 129 9 110 5 -15 9 -151 10 -302z m306
315 c0 -35 -47 -111 -114 -182 l-71 -76 -7 39 c-11 64 -9 94 6 94 8 0 33 23
56 50 24 28 59 59 79 70 44 23 51 24 51 5z m-396 -41 c9 -66 7 -187 -3 -202
-5 -9 -12 1 -21 32 -21 74 -34 57 -24 -31 5 -43 9 -139 9 -213 -1 -128 -2
-140 -36 -235 -25 -71 -62 -143 -129 -250 -112 -180 -132 -223 -176 -384 -19
-68 -37 -127 -40 -130 -4 -3 -4 55 -1 129 8 202 41 298 164 489 102 157 143
276 143 415 0 43 -7 105 -16 139 l-15 60 31 25 c39 31 66 83 75 150 9 66 30
69 39 6z m-114 24 c-1 -22 -24 -54 -62 -87 -29 -25 -42 -30 -63 -25 -35 9 -40
25 -19 66 27 54 33 58 90 58 37 0 54 -4 54 -12z m604 -140 c9 -18 41 -66 71
-106 30 -40 55 -75 55 -77 0 -2 -16 -12 -35 -24 l-35 -20 -24 42 c-41 70 -56
114 -56 167 0 27 2 50 5 50 2 0 11 -15 19 -32z m196 -150 c0 -5 -2 -8 -4 -8
-7 0 -106 133 -106 143 0 5 25 -21 55 -59 30 -38 55 -72 55 -76z m-980 109
c89 -65 114 -116 113 -232 -1 -129 -30 -211 -145 -403 -97 -163 -112 -191
-124 -231 -9 -32 -16 -17 -39 78 -23 96 -16 189 24 301 90 255 89 253 97 228
15 -47 4 -163 -25 -273 -17 -60 -29 -111 -27 -112 1 -2 34 58 72 132 l69 136
0 99 c0 68 -4 103 -13 112 -11 11 -12 10 -6 -6 4 -10 -20 10 -54 44 -52 54
-64 62 -86 56 -14 -3 -26 -2 -26 3 0 15 52 72 74 81 24 10 74 3 96 -13z
m-1343 -69 c-3 -8 -6 -5 -6 6 -1 11 2 17 5 13 3 -3 4 -12 1 -19z m2047 -16 c4
-10 22 -45 41 -77 38 -63 42 -75 22 -75 -8 0 -22 -9 -32 -20 -10 -11 -21 -20
-24 -20 -12 0 -75 112 -74 131 2 20 42 79 54 79 4 0 10 -8 13 -18z m-121 -129
c14 -21 37 -51 51 -67 19 -21 23 -33 15 -40 -7 -8 -17 -3 -34 19 -21 25 -69
125 -61 125 2 0 15 -17 29 -37z m2231 -78 c91 -24 183 -75 247 -136 76 -73 77
-97 2 -30 -102 92 -209 126 -363 119 -89 -4 -100 -8 -175 -48 -113 -61 -157
-92 -209 -152 -85 -98 -136 -237 -136 -378 0 -149 35 -257 120 -367 22 -29 36
-53 31 -53 -4 0 -39 26 -76 58 -149 124 -220 359 -170 557 82 326 404 515 729
430z m-2257 -103 l-22 -24 -7 42 c-4 23 -10 52 -13 64 -4 15 4 10 29 -19 l35
-40 -22 -23z m510 -49 l78 -18 -130 -6 c-143 -7 -251 -34 -355 -91 l-55 -30
40 36 c22 20 72 51 110 70 118 59 185 67 312 39z m1748 -9 c217 -56 360 -270
325 -485 -25 -153 -111 -272 -243 -337 -177 -88 -376 -54 -509 86 -113 118
-152 265 -113 417 64 245 297 383 540 319z m-4135 -127 c0 -58 -2 -65 -30 -85
-40 -30 -44 -28 -36 19 7 46 44 129 57 129 5 0 9 -28 9 -63z m2575 33 c93 -24
169 -58 293 -133 56 -34 139 -82 184 -107 68 -37 87 -53 110 -92 29 -51 26
-59 -13 -30 -37 28 -217 136 -284 169 -332 167 -597 180 -833 41 -118 -70
-292 -271 -375 -434 -14 -28 -44 -115 -67 -195 -23 -79 -44 -146 -47 -149 -3
-3 -3 45 -1 105 5 95 11 128 48 238 56 168 120 275 231 388 76 77 100 94 190
137 189 91 372 111 564 62z m-2545 -184 c0 -22 -43 -66 -65 -66 -3 0 -27 -16
-53 -36 -45 -34 -47 -35 -50 -14 -2 12 5 31 15 42 20 23 131 98 145 98 4 0 8
-11 8 -24z m2374 -26 c103 -39 399 -255 372 -272 -6 -4 -19 2 -29 15 l-18 22
11 -23 c6 -13 9 -26 7 -29 -3 -2 -45 22 -94 55 -128 86 -235 144 -343 187
-117 46 -118 47 -94 56 38 15 133 9 188 -11z m-194 -120 c17 -10 15 -11 -59
-30 -24 -6 -55 -16 -70 -21 -21 -9 -23 -12 -10 -19 8 -5 34 -36 57 -69 l42
-59 -75 -23 c-85 -25 -83 -19 -39 -112 12 -28 21 -54 18 -58 -2 -4 -28 -15
-57 -23 -80 -24 -84 -29 -58 -64 11 -17 21 -35 21 -40 0 -6 -21 -18 -47 -28
-27 -9 -112 -43 -191 -74 -161 -65 -154 -68 -101 49 21 45 53 88 109 145 44
46 80 85 80 88 0 8 -50 -6 -79 -22 -13 -6 -24 -10 -27 -8 -6 7 63 145 98 196
72 105 141 165 213 183 34 9 152 1 175 -11z m-2210 -15 c0 -9 -20 -38 -45 -64
-29 -31 -45 -57 -45 -74 0 -22 -22 -57 -36 -57 -2 0 -4 29 -4 65 l0 64 53 40
c56 43 77 50 77 26z m2783 -169 c4 -10 1 -13 -9 -9 -15 6 -19 23 -5 23 5 0 11
-7 14 -14z m-2573 -252 c25 -50 62 -112 83 -136 31 -38 37 -53 37 -91 l0 -46
-37 15 c-54 23 -97 59 -128 107 -15 23 -62 75 -104 115 l-76 72 -107 0 c-61 0
-109 4 -113 10 -3 6 -3 19 0 30 7 23 50 36 155 46 62 6 78 11 100 33 l25 27
60 -46 c52 -39 66 -58 105 -136z m3104 -20 c3 -7 -4 -20 -15 -30 -15 -13 -19
-31 -19 -81 0 -34 -4 -63 -8 -63 -8 0 -112 182 -112 197 0 4 14 40 32 79 l33
71 42 -81 c24 -44 45 -86 47 -92z m-3336 -38 c30 -16 137 -124 129 -132 -8 -8
-60 19 -105 54 -32 26 -46 32 -55 23 -6 -6 -46 -11 -94 -11 -91 0 -101 6 -89
55 6 24 9 25 97 25 58 0 100 -5 117 -14z m18 -166 c94 -22 200 -72 255 -121
32 -28 29 -27 -51 13 l-85 43 -172 3 c-159 3 -173 5 -178 23 -4 10 -3 28 0 39
6 17 15 20 75 20 38 0 108 -9 156 -20z m3086 -83 l40 -47 -34 -38 c-18 -20
-40 -52 -47 -70 -10 -23 -20 -32 -37 -32 l-24 0 0 147 0 147 31 -30 c17 -16
49 -50 71 -77z m-2574 17 c13 -8 20 -20 16 -26 -5 -8 -1 -9 10 -5 17 7 106
-25 106 -38 0 -4 -4 -14 -10 -24 -22 -43 -61 -202 -81 -334 -19 -123 -22 -204
-28 -612 l-6 -470 -38 -1 c-39 -1 -55 -9 -43 -21 4 -4 11 -1 16 7 6 8 10 10
10 4 0 -6 -8 -18 -18 -27 -16 -15 -18 -15 -21 1 -2 9 -5 371 -7 805 l-5 788
38 -16 c21 -9 48 -23 61 -31z m4013 -372 c-7 -12 -10 38 -11 160 0 97 -3 183
-6 192 -4 10 -18 16 -40 16 l-34 0 0 -259 c0 -251 -1 -259 -22 -291 -24 -34
-95 -97 -102 -89 -2 2 -7 111 -10 242 -4 131 -9 244 -13 252 -3 9 -17 18 -31
22 -51 12 -54 -6 -49 -279 2 -135 1 -251 -2 -256 -3 -5 -21 -12 -38 -15 -24
-5 -33 -3 -33 7 0 8 -11 21 -25 30 l-25 16 0 330 0 330 223 2 222 3 3 -198 c1
-118 -2 -205 -7 -215z m-720 93 c0 -170 -1 -325 -1 -342 0 -23 -5 -33 -15 -33
-9 0 -18 -7 -21 -15 -7 -18 -65 -20 -82 -3 -9 9 -12 78 -12 249 0 157 -4 240
-11 244 -5 4 -23 2 -38 -5 -36 -14 -41 -49 -41 -287 0 -95 -4 -173 -8 -173 -4
0 -28 13 -53 28 -46 30 -75 63 -144 166 l-40 58 -3 214 -3 214 237 -2 236 -3
-1 -310z m206 98 l-4 -218 -64 0 -64 0 -3 218 -2 217 70 0 71 0 -4 -217z
m-2167 171 c103 -27 280 -84 280 -89 0 -2 -19 -1 -42 1 l-43 4 45 -17 c61 -22
38 -27 -67 -14 -49 6 -119 11 -156 11 l-68 0 21 -30 c12 -17 49 -49 82 -71 33
-22 58 -42 56 -44 -8 -7 -241 38 -285 56 -13 5 -23 7 -23 5 0 -3 66 -58 148
-124 81 -66 167 -137 191 -159 l44 -39 -27 -17 -27 -18 -186 128 c-103 70
-202 142 -221 160 -19 18 -54 44 -78 58 -23 14 -46 30 -49 35 -9 15 71 118
113 144 85 53 152 58 292 20z m626 -177 c-1 -7 -1 -8 2 -3 5 9 65 -95 76 -131
6 -18 2 -22 -24 -28 -16 -4 -34 -14 -39 -23 -8 -14 -11 -12 -16 11 -4 16 -19
52 -33 80 -19 40 -26 73 -29 142 l-4 90 35 -63 c19 -35 33 -69 32 -75z m-1721
79 c40 -17 39 -14 21 -57 -24 -57 -38 -156 -45 -321 -4 -87 -10 -160 -12 -162
-3 -3 -15 -3 -28 1 l-22 6 3 221 c3 183 7 230 22 274 11 28 21 52 23 52 2 0
19 -7 38 -14z m3966 -57 c10 -19 9 -20 -13 -14 -12 4 -24 12 -26 16 -2 5 -10
9 -18 9 -17 0 -19 17 -1 23 17 6 45 -10 58 -34z m-4577 0 l66 -31 0 -1201 0
-1202 255 2 255 3 -2 -867 -3 -866 -72 -5 -73 -4 0 151 c0 136 -2 151 -18 160
-36 19 -42 -5 -42 -155 l0 -142 -52 -4 c-29 -3 -56 -3 -60 -1 -5 2 -8 98 -8
214 l0 209 -24 0 c-13 0 -27 -7 -30 -16 -3 -9 -6 -103 -6 -210 l0 -194 -59 0
c-55 0 -61 2 -81 30 -43 61 -90 60 -90 -1 0 -24 -4 -29 -25 -29 l-25 0 0 1863
c0 1789 5 2327 20 2327 4 0 38 -14 74 -31z m753 -6 c21 -10 40 -18 42 -20 2
-1 -6 -17 -17 -35 -31 -50 -59 -167 -77 -323 -10 -77 -18 -141 -20 -143 -7 -7
-17 296 -12 361 4 61 33 177 43 177 2 0 20 -8 41 -17z m-953 -27 c8 -31 -11
-83 -25 -69 -11 11 -1 93 11 93 4 0 11 -11 14 -24z m1467 -49 c30 -17 78 -65
140 -139 133 -161 234 -274 376 -421 68 -71 122 -134 120 -140 -2 -7 -13 -11
-25 -11 -12 1 -19 -3 -16 -7 3 -5 10 -6 16 -3 8 5 9 1 5 -12 -7 -18 -7 -18 8
0 14 18 20 15 16 -7 -1 -5 3 -6 9 -2 8 5 7 11 -1 21 -24 29 8 13 37 -18 21
-23 22 -27 5 -13 -17 14 -25 16 -28 8 -3 -7 -14 -13 -26 -13 -20 -1 -21 -1 -4
-11 13 -8 23 -7 35 3 13 9 12 7 -2 -10 l-19 -22 -29 30 c-15 17 -32 30 -37 30
-13 0 -354 352 -437 451 -61 72 -110 146 -207 309 -20 33 -20 34 -1 19 10 -9
40 -27 65 -42z m1805 -42 l43 -60 0 -1008 c1 -804 -2 -1007 -11 -1001 -9 5 -9
3 1 -9 11 -14 11 -18 -2 -23 -17 -6 -12 -33 7 -46 7 -5 5 -8 -4 -8 -10 0 -11
-3 -4 -8 6 -4 14 -20 18 -37 l7 -30 -41 40 c-22 22 -53 65 -68 95 -27 55 -27
56 -30 308 l-4 252 26 0 c22 0 26 4 26 30 0 25 -4 30 -25 30 l-25 0 0 529 0
529 25 6 c36 9 36 56 1 56 -16 0 -27 7 -32 22 -7 23 5 377 13 391 11 18 38 -1
79 -58z m-1914 4 c68 -82 198 -426 198 -527 0 -36 -4 -51 -11 -46 -8 4 -9 -1
-5 -17 15 -57 -61 113 -140 313 -47 119 -100 241 -118 270 l-33 55 41 -8 c28
-5 49 -17 68 -40z m-200 12 c28 -13 52 -36 69 -63 49 -80 106 -245 149 -436
28 -123 194 -837 251 -1075 16 -71 27 -138 23 -149 -4 -13 -2 -18 4 -14 11 7
26 -40 17 -54 -4 -6 -12 -10 -20 -10 -7 0 -16 -6 -18 -12 -3 -7 -6 -1 -6 13
-1 26 -31 51 -31 26 0 -8 -4 -6 -10 3 -16 25 -11 32 18 26 l27 -7 -25 20 c-14
11 -27 15 -31 10 -3 -5 -16 37 -29 93 -12 57 -40 177 -62 268 -21 91 -77 338
-124 550 -47 212 -90 389 -95 395 -10 10 -8 -118 12 -685 5 -157 12 -321 15
-365 4 -44 4 -78 1 -75 -10 9 -80 539 -163 1225 -14 121 -28 222 -30 224 -26
29 -34 -251 -34 -1332 0 -716 -3 -1076 -10 -1072 -5 3 -10 17 -10 31 0 13 -4
24 -9 24 -5 0 -16 3 -24 6 -12 4 -17 -3 -20 -28 -2 -18 -5 66 -6 187 -16 2072
-15 2112 30 2244 l22 63 38 -5 c21 -3 58 -14 81 -26z m1938 -158 c0 -135 0
-136 -20 -118 -18 16 -20 31 -20 125 0 100 7 130 32 130 4 0 8 -61 8 -137z
m-351 -148 c96 -184 151 -283 268 -481 81 -137 103 -202 71 -205 -7 -1 -21 -2
-30 -3 -20 -1 -20 -2 -12 -33 7 -26 24 -31 24 -8 0 8 5 15 10 15 14 0 12 -37
-2 -43 -10 -4 -9 -8 2 -16 8 -5 11 -13 8 -17 -7 -6 -73 90 -85 124 -3 9 -15
29 -25 44 -11 16 -16 33 -12 39 4 7 3 9 -3 6 -13 -8 -69 91 -202 357 -90 178
-104 213 -103 251 2 49 -3 55 -24 28 -12 -16 -13 -15 -14 10 0 15 -4 27 -10
27 -15 0 -12 28 6 77 l17 44 17 -28 c9 -16 54 -100 99 -188z m-2741 -45 c3
-88 8 -160 13 -160 10 0 0 -52 -11 -60 -4 -3 -8 -147 -9 -320 -1 -173 -5 -335
-8 -360 -3 -25 -8 -326 -10 -669 l-4 -623 -24 -47 -24 -46 -3 325 c-5 569 3
1060 18 1104 11 30 14 138 14 512 0 341 3 480 12 499 22 49 32 8 36 -155z
m4032 130 c17 -17 20 -33 20 -105 0 -68 -3 -85 -15 -86 -8 -1 -21 -2 -27 -3
-7 -1 -16 15 -19 34 l-6 35 -2 -42 c-1 -39 -3 -43 -26 -43 -25 0 -25 1 -25 89
0 74 3 92 21 115 24 31 52 33 79 6z m-596 -174 c52 -88 224 -194 353 -217 l61
-11 6 -86 c7 -97 9 -153 7 -194 l-1 -28 -92 0 c-51 0 -111 5 -133 11 -87 23
-191 120 -229 210 -10 23 -16 98 -20 234 -6 177 -5 196 7 163 8 -20 26 -57 41
-82z m556 -65 c0 -13 -63 -51 -84 -51 -16 0 -23 39 -9 53 10 11 93 8 93 -2z
m121 -7 c10 -13 10 -19 0 -36 -9 -15 -12 -54 -9 -132 l3 -111 -98 -3 -97 -3 0
39 c0 22 3 60 6 86 6 39 10 46 28 46 21 0 22 -4 18 -59 -5 -65 1 -71 60 -63
25 4 27 8 33 77 8 86 0 131 -26 145 -32 18 -21 30 25 30 27 0 48 -6 57 -16z
m833 -100 c3 -9 5 -57 5 -107 l-1 -92 -14 65 c-8 36 -21 77 -29 93 -8 15 -12
34 -9 42 8 20 40 19 48 -1z m-4917 -16 c-3 -8 -6 -5 -6 6 -1 11 2 17 5 13 3
-3 4 -12 1 -19z m3965 -33 c3 -13 1 -22 -3 -19 -9 5 -13 44 -5 44 2 0 6 -11 8
-25z m482 -11 c32 -12 9 -117 -40 -181 -22 -29 -116 -93 -136 -93 -9 0 -11
195 -2 226 9 33 132 66 178 48z m-2314 -150 c0 -8 -19 -13 -24 -6 -3 5 1 9 9
9 8 0 15 -2 15 -3z m445 -64 c15 -17 16 -24 7 -45 -20 -43 -82 -28 -82 20 0
45 44 59 75 25z m1403 -10 c49 -30 55 -56 50 -224 -6 -170 -10 -179 -83 -174
l-40 3 -3 185 c-1 102 0 195 3 208 7 27 30 28 73 2z m-2225 -176 c50 -102 51
-106 33 -120 -11 -8 -24 -14 -28 -14 -5 0 -32 47 -60 105 -42 87 -49 107 -38
120 25 30 41 14 93 -91z m3167 -22 c0 -113 -1 -120 -25 -142 -32 -30 -40 -22
-19 19 13 27 16 54 12 137 -4 96 -3 104 14 104 16 0 18 -10 18 -118z m-1082
-150 c2 -52 -1 -68 -20 -94 -15 -21 -23 -51 -26 -90 l-4 -58 -172 0 c-147 0
-177 3 -213 20 l-43 19 0 130 0 130 103 3 c56 2 163 3 237 3 l135 0 3 -63z
m722 -10 c0 -103 -15 -156 -56 -191 -40 -36 -83 -43 -218 -39 -82 2 -101 6
-110 21 -16 25 7 37 71 37 l51 0 4 57 c1 31 -1 66 -7 76 -5 11 -36 30 -68 42
-32 12 -68 30 -80 41 l-22 19 55 5 c30 3 128 6 217 5 l163 0 0 -73z m-4040
-46 c0 -3 -4 -8 -10 -11 -5 -3 -10 -1 -10 4 0 6 5 11 10 11 6 0 10 -2 10 -4z
m-20 -30 c0 -2 -7 -7 -16 -10 -8 -3 -12 -2 -9 4 6 10 25 14 25 6z m25 -6 c3
-5 1 -10 -4 -10 -6 0 -11 5 -11 10 0 6 2 10 4 10 3 0 8 -4 11 -10z m3494 4
c20 -4 38 -18 51 -39 21 -34 27 -75 10 -75 -13 0 -13 -193 0 -206 6 -6 8 -18
4 -27 -5 -14 -22 -17 -111 -17 l-105 0 6 31 c3 17 6 54 6 81 0 45 2 49 22 46
26 -4 38 -40 27 -80 l-8 -28 55 0 55 0 -3 127 -3 127 -30 6 c-51 11 -92 -6
-104 -42 -14 -40 -14 -45 1 -30 17 17 38 15 38 -3 0 -15 -26 -20 -54 -9 -19 7
-22 74 -5 105 18 34 76 47 148 33z m-1178 -195 c18 -18 19 -23 6 -42 -17 -26
-43 -33 -62 -17 -19 16 -19 45 1 64 20 21 30 20 55 -5z m1116 -31 c-3 -8 -6
-5 -6 6 -1 11 2 17 5 13 3 -3 4 -12 1 -19z m-557 -5 c14 -9 28 -22 32 -27 8
-12 9 -13 141 -15 82 -1 97 -4 97 -17 0 -10 -6 -14 -15 -10 -19 7 -19 -3 0
-28 13 -17 15 -18 15 -3 0 9 5 17 10 17 6 0 10 9 10 21 0 12 4 17 11 14 6 -4
8 -14 5 -22 -3 -8 -1 -11 4 -8 6 3 10 13 10 21 0 12 10 14 42 12 l42 -3 0 -92
c1 -51 5 -93 10 -93 4 0 6 7 2 15 -3 8 -1 15 4 15 6 0 10 -38 10 -87 0 -49 3
-118 6 -155 9 -97 8 -98 -145 -98 -116 0 -132 2 -177 25 -55 27 -104 81 -134
148 -17 36 -20 66 -20 215 0 94 3 172 8 172 4 0 19 -8 32 -17z m-1126 -82 c13
-14 14 -24 7 -45 -13 -32 -55 -36 -71 -7 -14 27 -13 37 6 55 20 21 37 20 58
-3z m2185 -168 c-4 -140 -6 -151 -31 -195 -24 -39 -80 -88 -102 -88 -11 0 -6
86 8 134 8 27 15 99 17 164 1 65 4 120 6 125 2 4 27 7 55 7 l50 0 -3 -147z
m-1399 -20 c0 -145 0 -146 -20 -128 -18 16 -20 31 -20 136 0 102 2 119 18 128
9 6 18 11 20 11 1 0 2 -66 2 -147z m1844 95 c12 -17 16 -49 16 -136 0 -62 -4
-111 -8 -108 -4 2 -8 -7 -7 -21 0 -16 -9 -31 -24 -41 -24 -16 -24 -16 -11 8
18 34 19 229 1 263 -14 26 -10 57 8 57 5 0 17 -10 25 -22z m-894 -65 c12 -11
16 -55 18 -241 3 -220 2 -229 -18 -255 -20 -26 -49 -35 -63 -20 -4 3 1 16 10
27 l18 21 -23 -20 c-23 -19 -24 -19 -38 0 -11 15 -14 67 -14 249 0 127 4 236
8 242 17 26 73 25 102 -3z m-1523 -150 c203 -256 533 -694 533 -708 0 -7 -6
-18 -13 -24 -10 -8 -20 -4 -39 17 -55 59 -545 677 -583 736 -17 25 -17 27 0
46 10 11 21 20 25 20 4 0 38 -39 77 -87z m-847 61 c0 -8 -19 -13 -24 -6 -3 5
1 9 9 9 8 0 15 -2 15 -3z m451 -451 c51 -80 130 -202 174 -270 137 -211 159
-246 183 -288 20 -34 21 -36 3 -15 -11 14 -21 21 -21 16 0 -5 -7 -3 -15 4 -8
6 -18 9 -23 6 -11 -6 -53 40 -45 48 4 3 2 6 -4 6 -11 0 -130 178 -254 380
-145 237 -155 260 -110 260 11 0 49 -50 112 -147z m-713 55 c17 -17 15 -53 -3
-68 -20 -17 -62 -5 -70 20 -14 44 41 80 73 48z m-381 -214 c-3 -3 -12 -4 -19
-1 -8 3 -5 6 6 6 11 1 17 -2 13 -5z m981 -231 c118 -240 139 -290 145 -343 l5
-45 -19 40 c-18 38 -19 30 -4 -25 4 -14 5 -22 1 -19 -8 8 -108 212 -191 393
-66 142 -68 149 -50 162 10 8 20 14 22 14 2 0 43 -80 91 -177z m-2019 -78 c-7
-7 -8 -4 -3 10 5 15 4 17 -5 9 -23 -21 -31 -191 -31 -664 0 -413 -2 -472 -14
-454 -12 17 -15 112 -17 555 l-2 534 34 54 34 54 7 -44 c5 -27 4 -47 -3 -54z
m1483 -215 c10 -52 31 -189 48 -305 16 -115 31 -220 33 -231 3 -15 -1 -21 -12
-20 -8 2 -17 8 -19 15 -3 8 -9 6 -19 -6 -13 -16 -13 -16 -3 6 10 19 9 26 -1
33 -11 7 -11 11 -1 15 17 7 15 26 -2 20 -17 -7 -15 -16 -61 307 -28 197 -32
251 -23 258 31 19 42 2 60 -92z m1031 65 c-3 -9 -8 -14 -10 -11 -3 3 -2 9 2
15 9 16 15 13 8 -4z m962 -100 c48 -55 101 -115 117 -133 16 -18 26 -38 22
-45 -4 -6 -3 -9 1 -4 5 4 19 -3 32 -15 21 -20 22 -23 8 -45 -9 -13 -11 -23 -6
-23 6 0 14 7 19 17 9 14 11 14 21 -5 10 -18 9 -21 -4 -16 -8 4 -15 1 -15 -5 0
-10 14 -15 34 -12 5 1 3 -5 -4 -14 -12 -14 -17 -12 -51 21 -21 21 -36 41 -34
45 3 4 -1 9 -9 12 -13 5 -156 166 -225 254 -29 36 -32 45 -21 58 7 9 16 14 20
13 4 -2 46 -48 95 -103z m-937 64 c-3 -8 -7 -3 -11 10 -4 17 -3 21 5 13 5 -5
8 -16 6 -23z m-354 -85 c3 -8 2 -12 -4 -9 -6 3 -10 10 -10 16 0 14 7 11 14 -7z
m39 -109 c-3 -9 -8 -14 -10 -11 -3 3 -2 9 2 15 9 16 15 13 8 -4z m1547 -235
c0 -9 -5 -7 -16 8 -8 12 -19 20 -24 17 -5 -3 -12 0 -16 6 -4 7 -3 9 4 5 6 -3
13 -2 17 4 3 5 1 10 -4 10 -6 0 -11 6 -11 13 1 17 50 -45 50 -63z m-1915 -74
c18 -26 11 -52 -16 -67 -28 -15 -59 6 -59 39 0 53 47 71 75 28z m-308 -118
c-3 -8 -6 -5 -6 6 -1 11 2 17 5 13 3 -3 4 -12 1 -19z"/>
<path d="M2291 8847 c-13 -21 -12 -21 5 -5 10 10 16 20 13 22 -3 3 -11 -5 -18
-17z"/>
<path d="M2911 8470 c0 -8 4 -24 9 -35 5 -13 9 -14 9 -5 0 8 -4 24 -9 35 -5
13 -9 14 -9 5z"/>
<path d="M2867 8193 c-4 -3 -7 -11 -7 -17 0 -6 5 -5 12 2 6 6 9 14 7 17 -3 3
-9 2 -12 -2z"/>
<path d="M5842 8213 c-7 -2 -17 -14 -23 -25 -20 -37 39 -76 69 -46 17 17 15
42 -6 61 -20 18 -20 18 -40 10z"/>
<path d="M4620 8184 c0 -9 5 -14 12 -12 18 6 21 28 4 28 -9 0 -16 -7 -16 -16z"/>
<path d="M4340 8055 c-15 -18 -6 -61 14 -68 19 -7 56 20 56 42 0 37 -46 55
-70 26z"/>
<path d="M6196 7925 c-9 -20 -29 -43 -46 -53 -38 -22 -38 -37 1 -57 18 -10 37
-31 46 -53 15 -34 16 -36 27 -17 6 11 30 39 54 61 23 23 42 44 42 46 0 3 -13
11 -29 18 -18 7 -35 26 -46 51 -10 21 -22 39 -26 39 -5 0 -15 -16 -23 -35z"/>
<path d="M6635 7838 c-2 -7 -14 -58 -25 -113 -37 -181 -61 -207 -226 -245
-130 -31 -131 -34 -18 -60 168 -38 197 -64 233 -210 38 -153 40 -160 61 -160
21 0 27 16 54 165 24 138 51 163 208 201 59 15 106 30 103 33 -2 4 -50 18
-106 31 -163 39 -186 64 -214 230 -23 140 -23 140 -46 140 -11 0 -22 -6 -24
-12z"/>
<path d="M3747 7724 l-49 -54 49 -54 48 -54 54 54 54 54 -54 54 -54 54 -48
-54z"/>
<path d="M3362 7498 c-31 -31 3 -87 43 -72 22 9 35 45 23 67 -10 20 -48 23
-66 5z"/>
<path d="M5667 7202 c-15 -15 -27 -32 -27 -38 1 -10 46 -64 55 -64 3 0 19 15
35 33 23 25 26 34 16 42 -7 6 -18 20 -25 33 -15 29 -22 28 -54 -6z"/>
<path d="M7105 7038 c-10 -40 -28 -82 -39 -93 -12 -12 -59 -31 -109 -44 -49
-13 -85 -27 -80 -31 4 -4 41 -15 81 -24 112 -25 126 -39 153 -148 6 -27 17
-48 24 -48 7 0 20 29 30 68 24 96 24 97 168 137 65 18 67 30 5 39 -24 4 -66
17 -94 30 -54 25 -65 44 -91 145 -14 55 -28 46 -48 -31z"/>
<path d="M6286 6764 l-49 -55 49 -50 c27 -27 51 -48 55 -47 4 2 30 25 59 52
l52 49 -53 53 c-29 30 -56 54 -59 53 -3 0 -27 -25 -54 -55z"/>
<path d="M3222 6572 c-16 -76 -33 -99 -104 -132 -32 -16 -55 -30 -51 -33 4 -2
32 -12 60 -21 63 -21 79 -41 95 -118 7 -35 17 -58 25 -58 7 0 13 6 13 13 0 33
33 119 52 137 12 11 43 27 70 36 54 18 53 25 -4 43 -64 21 -85 45 -104 121
-10 39 -23 70 -29 70 -6 0 -16 -26 -23 -58z"/>
<path d="M7525 6560 c-4 -18 -21 -41 -41 -56 -41 -31 -42 -41 -9 -54 15 -6 32
-25 41 -45 18 -44 29 -44 43 -2 6 18 24 40 41 50 37 22 37 28 1 48 -17 10 -35
32 -42 53 -16 44 -25 46 -34 6z"/>
<path d="M3647 6243 c-4 -3 -7 -14 -7 -24 0 -10 -13 -28 -30 -41 -16 -12 -30
-27 -30 -33 0 -6 14 -21 30 -33 17 -13 30 -29 30 -37 0 -8 7 -15 15 -15 8 0
15 5 15 11 0 7 16 26 35 44 l35 33 -35 35 c-19 19 -35 42 -35 51 0 16 -12 21
-23 9z"/>
<path d="M5926 6134 c-21 -21 -20 -41 3 -54 22 -11 51 9 51 35 0 25 -36 37
-54 19z"/>
<path d="M7760 6125 c-18 -22 -8 -50 19 -50 32 0 49 28 32 49 -17 20 -35 20
-51 1z"/>
<path d="M3453 5713 l-42 -46 45 -42 45 -43 42 45 42 45 -40 44 c-23 24 -43
44 -45 43 -3 0 -24 -21 -47 -46z"/>
<path d="M7660 5211 c-13 -25 -4 -48 21 -56 38 -12 65 35 37 63 -18 18 -46 14
-58 -7z"/>
<path d="M7227 1823 c-9 -8 -9 -326 -1 -347 7 -19 35 -21 52 -4 13 13 18 311
6 342 -6 16 -45 22 -57 9z"/>
<path d="M2313 4383 c-10 -4 -13 -147 -13 -669 l0 -664 25 0 24 0 3 658 c2
361 1 663 -1 670 -3 12 -16 14 -38 5z"/>
<path d="M2851 6684 c0 -11 3 -14 6 -6 3 7 2 16 -1 19 -3 4 -6 -2 -5 -13z"/>
<path d="M6785 6006 c-109 -36 -184 -102 -235 -209 -52 -109 -48 -225 13 -340
100 -189 360 -245 546 -116 138 94 193 264 141 432 -27 87 -96 164 -188 209
-57 28 -78 33 -152 35 -50 2 -102 -3 -125 -11z m184 -264 c47 -45 60 -92 38
-145 -42 -98 -190 -101 -240 -3 -27 52 -16 100 34 148 34 32 47 38 84 38 37 0
50 -6 84 -38z"/>
<path d="M6856 5665 c-20 -20 -5 -55 23 -55 28 0 47 28 34 48 -14 23 -38 26
-57 7z"/>
<path d="M3330 3451 c0 -6 5 -13 10 -16 6 -3 10 1 10 9 0 9 -4 16 -10 16 -5 0
-10 -4 -10 -9z"/>
<path d="M6790 4775 c0 -42 4 -55 15 -55 31 0 31 92 0 104 -12 4 -15 -5 -15
-49z"/>
<path d="M5316 4637 c3 -10 9 -15 12 -12 3 3 0 11 -7 18 -10 9 -11 8 -5 -6z"/>
<path d="M3382 2128 c-19 -19 -17 -1064 1 -1071 42 -16 42 -12 45 537 2 504 2
525 -16 535 -13 7 -22 7 -30 -1z"/>
<path d="M3200 1640 c-7 -14 -10 -85 -8 -215 3 -202 9 -233 43 -205 13 11 15
42 13 224 -3 188 -5 211 -20 214 -9 2 -22 -6 -28 -18z"/>
<path d="M4430 2950 c-8 -5 -12 -12 -9 -15 4 -3 12 1 19 10 14 17 11 19 -10 5z"/>
<path d="M4442 2888 c5 -15 28 -23 28 -10 0 5 -7 13 -16 16 -10 4 -14 1 -12
-6z"/>
<path d="M3800 2265 c0 -8 2 -15 4 -15 2 0 6 7 10 15 3 8 1 15 -4 15 -6 0 -10
-7 -10 -15z"/>
<path d="M3810 2240 c-12 -8 -10 -10 8 -10 13 0 20 4 17 10 -7 12 -6 12 -25 0z"/>
<path d="M5840 3766 c0 -2 7 -7 16 -10 8 -3 12 -2 9 4 -6 10 -25 14 -25 6z"/>
<path d="M5802 3698 c14 -28 25 -42 30 -35 4 6 17 12 29 12 12 0 24 7 27 15 3
8 1 12 -3 8 -4 -4 -14 0 -22 10 -12 15 -13 14 -2 -7 9 -20 9 -23 -4 -18 -8 3
-20 0 -27 -6 -10 -9 -11 -7 -5 13 4 14 4 22 0 18 -4 -4 -16 3 -26 15 -16 19
-16 15 3 -25z"/>
<path d="M6791 3662 c0 -52 2 -62 10 -44 5 13 13 21 18 18 13 -8 21 33 11 59
-5 12 -16 25 -24 28 -14 5 -16 -4 -15 -61z"/>
<path d="M6791 3467 c-1 -51 1 -58 17 -55 22 4 29 58 9 73 -7 5 -16 17 -20 25
-3 8 -6 -11 -6 -43z"/>
<path d="M6999 3487 c5 -5 19 -7 32 -5 20 3 19 5 -9 9 -20 3 -29 2 -23 -4z"/>
<path d="M6305 3080 c3 -5 16 -10 28 -9 21 0 21 1 2 9 -28 12 -37 12 -30 0z"/>
<path d="M6360 3070 c0 -5 5 -10 10 -10 6 0 10 5 10 10 0 6 -4 10 -10 10 -5 0
-10 -4 -10 -10z"/>
<path d="M6316 3043 c-6 -14 -5 -15 5 -6 7 7 10 15 7 18 -3 3 -9 -2 -12 -12z"/>
<path d="M6378 3043 c7 -3 16 -2 19 1 4 3 -2 6 -13 5 -11 0 -14 -3 -6 -6z"/>
<path d="M6590 3006 c0 -2 7 -9 15 -16 9 -7 15 -8 15 -2 0 5 -7 12 -15 16 -8
3 -15 4 -15 2z"/>
<path d="M6570 2915 c0 -8 4 -15 10 -15 5 0 7 7 4 15 -4 8 -8 15 -10 15 -2 0
-4 -7 -4 -15z"/>
<path d="M6790 2806 c0 -54 1 -56 20 -46 13 7 20 21 20 39 0 15 -9 36 -20 46
-20 18 -20 17 -20 -39z"/>
<path d="M6792 2600 c0 -52 2 -89 5 -82 2 6 11 12 19 12 12 0 15 12 13 55 -1
30 -6 52 -10 49 -5 -3 -13 10 -18 28 -7 27 -9 14 -9 -62z"/>
<path d="M6805 2390 c-3 -6 1 -7 9 -4 18 7 21 14 7 14 -6 0 -13 -4 -16 -10z"/>
<path d="M5735 2140 c10 -11 20 -20 23 -20 3 0 -3 9 -13 20 -10 11 -20 20 -23
20 -3 0 3 -9 13 -20z"/>
<path d="M5775 2090 c-3 -6 1 -13 9 -16 8 -3 18 -14 21 -25 6 -17 45 -28 45
-12 0 17 -43 51 -58 46 -10 -4 -13 -2 -8 5 4 7 5 12 2 12 -3 0 -8 -5 -11 -10z
m54 -44 c-3 -3 -11 5 -18 17 -13 21 -12 21 5 5 10 -10 16 -20 13 -22z"/>
<path d="M5233 1848 c4 -12 1 -18 -9 -18 -8 0 -12 -5 -8 -11 4 -7 11 -6 22 5
14 13 14 18 3 28 -11 11 -13 10 -8 -4z"/>
<path d="M4341 1134 c0 -11 3 -14 6 -6 3 7 2 16 -1 19 -3 4 -6 -2 -5 -13z"/>
<path d="M6443 1423 c4 -3 1 -13 -6 -22 -11 -14 -10 -14 5 -2 16 12 16 31 1
31 -4 0 -3 -3 0 -7z"/>
<path d="M1026 557 c-11 -8 -17 -23 -14 -38 3 -22 8 -24 60 -27 48 -3 58 0 67
17 6 11 8 26 5 34 -10 28 -87 36 -118 14z"/>
<path d="M9066 557 c-11 -8 -17 -23 -14 -38 2 -20 9 -25 41 -27 21 -2 45 2 53
9 47 39 -29 93 -80 56z"/>
<path d="M1324 546 c-11 -28 1 -51 27 -54 31 -4 53 20 44 48 -8 24 -62 29 -71
6z"/>
<path d="M8759 544 c-9 -11 -10 -20 -2 -32 14 -24 54 -27 70 -7 28 40 -36 77
-68 39z"/>
<path d="M9344 546 c-11 -28 1 -51 25 -51 28 0 47 25 38 49 -8 20 -56 21 -63
2z"/>
</g>
</svg>
